#!OML:ASF H:\GeneralSubjects\Female5\Project 1\Capture day 1\Session 1\Female5.ASF
:FULLY-SPECIFIED
:DEGREES
211
root -21.8114 15.8899 6.63442 -169.123 -22.1272 -175.337
lowerback 8.3799 1.24447 2.5949
upperback -8.54762 2.03256 4.19556
thorax -14.2277 0.739749 2.84966
lowerneck -12.593 -4.62224 -8.09144
upperneck 25.7888 -9.59678 11.7245
head 11.4125 -4.41579 4.24038
rclavicle 2.63887e-014 7.95139e-016
rhumerus -27.2844 -25.1758 -2.38962
rradius 130.404
rwrist 13.79
rhand -46.2998 -9.08682
rfingers 7.12502
rthumb -19.0341 -38.1755
lclavicle 2.63887e-014 7.95139e-016
lhumerus -12.8011 22.7182 24.9247
lradius 137.406
lwrist -36.5939
lhand -47.8505 66.8449
lfingers 7.12502
lthumb -20.5247 -95.7799
rfemur 2.0063 37.2257 38.3028
rtibia -12.852
rfoot -47.3396 -41.488
rtoes 23.7696
lfemur -18.0735 -21.9251 -0.0743496
ltibia 11.9249
lfoot -16.7693 20.1576
ltoes -68.4561
212
root -21.8122 15.889 6.61973 -169.153 -22.1098 -175.433
lowerback 8.26883 1.23049 2.53464
upperback -8.59017 1.996 4.24202
thorax -14.2115 0.728135 2.9454
lowerneck -12.4029 -4.58976 -8.35066
upperneck 25.6877 -9.59519 12.0431
head 11.3664 -4.42031 4.40699
rclavicle -2.69602e-014 2.38542e-014
rhumerus -27.199 -25.1414 -2.37401
rradius 130.392
rwrist 13.7818
rhand -46.3026 -8.76109
rfingers 7.12502
rthumb -19.0367 -37.8495
lclavicle -2.69602e-014 2.38542e-014
lhumerus -12.9361 22.7266 24.8746
lradius 137.358
lwrist -36.6207
lhand -47.8968 66.7219
lfingers 7.12502
lthumb -20.5693 -95.6522
rfemur 2.14703 37.1533 38.3182
rtibia -12.8324
rfoot -47.1275 -41.5958
rtoes 23.5393
lfemur -17.8901 -22.1135 -0.203677
ltibia 11.8674
lfoot -17.3191 19.9073
ltoes -68.0088
213
root -21.8131 15.8875 6.60409 -169.2 -22.0884 -175.496
lowerback 8.15814 1.23419 2.50598
upperback -8.61279 1.98776 4.25823
thorax -14.1697 0.726049 2.98242
lowerneck -12.3443 -4.59142 -8.46107
upperneck 25.6116 -9.64721 12.287
head 11.3522 -4.43551 4.50942
rclavicle -6.34123e-014 -3.97569e-014
rhumerus -27.1982 -25.1446 -2.33486
rradius 130.379
rwrist 13.7822
rhand -46.2899 -8.32524
rfingers 7.12502
rthumb -19.0245 -37.4148
lclavicle -6.34123e-014 -3.97569e-014
lhumerus -12.8829 22.823 24.7433
lradius 137.227
lwrist -36.5349
lhand -47.9209 66.5641
lfingers 7.12502
lthumb -20.5924 -95.4919
rfemur 2.30342 37.0882 38.3764
rtibia -12.8133
rfoot -46.9457 -41.6851
rtoes 23.311
lfemur -17.6918 -22.2985 -0.308241
ltibia 11.8132
lfoot -17.8033 19.7057
ltoes -67.6244
214
root -21.8141 15.8855 6.58788 -169.263 -22.0662 -175.521
lowerback 8.05385 1.24794 2.51564
upperback -8.61925 1.99875 4.25038
thorax -14.1107 0.728655 2.96609
lowerneck -12.4349 -4.63034 -8.36243
upperneck 25.5845 -9.73714 12.3452
head 11.3711 -4.4578 4.49773
rclavicle -7.65321e-015 -1.03368e-014
rhumerus -27.262 -25.1769 -2.3182
rradius 130.369
rwrist 13.8086
rhand -46.2961 -7.75771
rfingers 7.12502
rthumb -19.0304 -36.8467
lclavicle -7.65321e-015 -1.03368e-014
lhumerus -12.6725 22.9786 24.5549
lradius 137.037
lwrist -36.3624
lhand -47.9275 66.3321
lfingers 7.12502
lthumb -20.5987 -95.2591
rfemur 2.45563 37.0285 38.4738
rtibia -12.7754
rfoot -46.8279 -41.7131
rtoes 23.1395
lfemur -17.4861 -22.4569 -0.384236
ltibia 11.7671
lfoot -18.1247 19.6201
ltoes -67.3892
215
root -21.8149 15.8828 6.57169 -169.339 -22.0426 -175.52
lowerback 7.96588 1.26909 2.55003
upperback -8.61514 2.02405 4.21997
thorax -14.0479 0.735082 2.90716
lowerneck -12.6274 -4.69267 -8.13048
upperneck 25.6004 -9.85626 12.2911
head 11.4175 -4.4862 4.41476
rclavicle -3.03147e-015 -4.37326e-014
rhumerus -27.3811 -25.2251 -2.36553
rradius 130.373
rwrist 13.8931
rhand -46.3664 -7.0272
rfingers 7.12502
rthumb -19.0981 -36.1095
lclavicle -3.03147e-015 -4.37326e-014
lhumerus -12.3632 23.1346 24.3694
lradius 136.836
lwrist -36.1633
lhand -47.9236 66.0294
lfingers 7.12502
lthumb -20.595 -94.9569
rfemur 2.58615 36.9728 38.5859
rtibia -12.703
rfoot -46.7951 -41.6571
rtoes 23.0669
lfemur -17.2761 -22.6091 -0.443024
ltibia 11.7313
lfoot -18.3172 19.6489
ltoes -67.3067
216
root -21.8149 15.8799 6.55617 -169.418 -22.0182 -175.516
lowerback 7.9021 1.28845 2.57926
upperback -8.61063 2.04773 4.17979
thorax -13.9994 0.741232 2.84056
lowerneck -12.8542 -4.76078 -7.84451
upperneck 25.6378 -9.9815 12.1813
head 11.4734 -4.51594 4.30001
rclavicle 9.19379e-014 6.36111e-015
rhumerus -27.5115 -25.2731 -2.49374
rradius 130.388
rwrist 14.0422
rhand -46.5111 -6.163
rfingers 7.12502
rthumb -19.2372 -35.2315
lclavicle 9.19379e-014 6.36111e-015
lhumerus -12.0597 23.244 24.2292
lradius 136.679
lwrist -35.9996
lhand -47.9201 65.6991
lfingers 7.12502
lthumb -20.5916 -94.6269
rfemur 2.68374 36.9183 38.6844
rtibia -12.5984
rfoot -46.8171 -41.553
rtoes 23.0654
lfemur -17.0747 -22.7657 -0.498264
ltibia 11.7129
lfoot -18.457 19.7331
ltoes -67.3118
217
root -21.8134 15.8767 6.54146 -169.488 -21.9908 -175.535
lowerback 7.85964 1.30018 2.57006
upperback -8.61436 2.05725 4.14097
thorax -13.9754 0.744769 2.80035
lowerneck -12.9956 -4.8091 -7.61457
upperneck 25.6333 -10.078 12.1146
head 11.4972 -4.53808 4.21641
rclavicle -1.08835e-014 5.1684e-014
rhumerus -27.6165 -25.3083 -2.67897
rradius 130.417
rwrist 14.231
rhand -46.689 -5.21707
rfingers 7.12502
rthumb -19.4083 -34.2685
lclavicle -1.08835e-014 5.1684e-014
lhumerus -11.8415 23.2885 24.1438
lradius 136.599
lwrist -35.8851
lhand -47.9285 65.367
lfingers 7.12502
lthumb -20.5997 -94.2939
rfemur 2.741 36.8665 38.7444
rtibia -12.4582
rfoot -46.8503 -41.4298
rtoes 23.0583
lfemur -16.8937 -22.8993 -0.571256
ltibia 11.7196
lfoot -18.5726 19.8151
ltoes -67.3607
218
root -21.8102 15.8734 6.52744 -169.55 -21.9613 -175.577
lowerback 7.83453 1.30039 2.51631
upperback -8.63101 2.04658 4.11888
thorax -13.9797 0.743783 2.80856
lowerneck -13.0114 -4.82925 -7.49676
upperneck 25.5781 -10.1298 12.1209
head 11.4803 -4.54999 4.18835
rclavicle 1.59028e-015 3.97569e-015
rhumerus -27.6682 -25.3211 -2.88434
rradius 130.461
rwrist 14.4322
rhand -46.8548 -4.28108
rfingers 7.12502
rthumb -19.5677 -33.3164
lclavicle 1.59028e-015 3.97569e-015
lhumerus -11.7594 23.2863 24.0855
lradius 136.602
lwrist -35.7902
lhand -47.9485 65.0443
lfingers 7.12502
lthumb -20.619 -93.9692
rfemur 2.76132 36.8175 38.7695
rtibia -12.2818
rfoot -46.88 -41.2837
rtoes 23.0374
lfemur -16.7424 -22.9667 -0.656835
ltibia 11.7581
lfoot -18.6951 19.8184
ltoes -67.3971
219
root -21.8059 15.87 6.51368 -169.607 -21.9344 -175.623
lowerback 7.81247 1.28622 2.43379
upperback -8.65685 2.0134 4.12416
thorax -13.9986 0.735958 2.86859
lowerneck -12.922 -4.82291 -7.48868
upperneck 25.4892 -10.1332 12.1784
head 11.4318 -4.55071 4.20772
rclavicle 2.68359e-014 -9.54166e-015
rhumerus -27.6547 -25.318 -3.08231
rradius 130.514
rwrist 14.6215
rhand -46.9828 -3.50888
rfingers 7.12502
rthumb -19.6908 -32.5316
lclavicle 2.68359e-014 -9.54166e-015
lhumerus -11.8097 23.2815 24.0099
lradius 136.651
lwrist -35.6901
lhand -47.9735 64.7361
lfingers 7.12502
lthumb -20.6429 -93.6584
rfemur 2.76875 36.7662 38.7786
rtibia -12.1055
rfoot -46.9066 -41.1233
rtoes 23.0145
lfemur -16.6209 -22.9538 -0.736794
ltibia 11.822
lfoot -18.8716 19.6905
ltoes -67.345
220
root -21.8012 15.8663 6.49975 -169.66 -21.9126 -175.663
lowerback 7.78111 1.26534 2.34301
upperback -8.68288 1.97009 4.14746
thorax -14.0128 0.724884 2.95555
lowerneck -12.7857 -4.80759 -7.5408
upperneck 25.3916 -10.1123 12.2448
head 11.371 -4.54737 4.2455
rclavicle 7.40473e-015 -2.78299e-014
rhumerus -27.6153 -25.3219 -3.20842
rradius 130.563
rwrist 14.7457
rhand -47.0648 -3.03482
rfingers 7.12502
rthumb -19.7696 -32.0494
lclavicle 7.40473e-015 -2.78299e-014
lhumerus -11.9211 23.2924 23.9203
lradius 136.706
lwrist -35.596
lhand -47.9993 64.4412
lfingers 7.12502
lthumb -20.6677 -93.3608
rfemur 2.80162 36.7067 38.7888
rtibia -11.9885
rfoot -46.9186 -40.9774
rtoes 22.9759
lfemur -16.5163 -22.8826 -0.805943
ltibia 11.8936
lfoot -19.1031 19.4549
ltoes -67.1605
221
root -21.7964 15.8627 6.48568 -169.711 -21.9009 -175.684
lowerback 7.74035 1.25127 2.27377
upperback -8.70663 1.93819 4.16791
thorax -14.0176 0.716782 3.02486
lowerneck -12.6415 -4.80141 -7.60574
upperneck 25.296 -10.1009 12.3061
head 11.311 -4.55021 4.28232
rclavicle -2.28105e-014 -1.03368e-014
rhumerus -27.6311 -25.3638 -3.13858
rradius 130.594
rwrist 14.7052
rhand -47.1012 -2.94641
rfingers 7.12502
rthumb -19.8046 -31.9574
lclavicle -2.28105e-014 -1.03368e-014
lhumerus -12.0131 23.3009 23.8531
lradius 136.75
lwrist -35.5256
lhand -48.0283 64.1868
lfingers 7.12502
lthumb -20.6956 -93.1033
rfemur 2.85499 36.6373 38.8113
rtibia -11.9327
rfoot -46.8885 -40.8748
rtoes 22.9036
lfemur -16.4305 -22.7747 -0.849713
ltibia 11.9671
lfoot -19.329 19.1811
ltoes -66.9258
